<mxfile host="app.diagrams.net" agent="Mozilla/5.0 (Windows NT 10.0; Win64; x64) AppleWebKit/537.36 (KHTML, like Gecko) Chrome/130.0.0.0 Safari/537.36 Edg/130.0.0.0" version="24.8.6">
  <diagram name="Page-1" id="2KT5KhoN0WrFs7F1kOKD">
    <mxGraphModel dx="2633" dy="1096" grid="1" gridSize="10" guides="1" tooltips="1" connect="1" arrows="1" fold="1" page="1" pageScale="1" pageWidth="1169" pageHeight="827" math="0" shadow="0">
      <root>
        <mxCell id="0" />
        <mxCell id="1" parent="0" />
        <mxCell id="aaKhnQfu2FWIcfCH-mZ6-2" value="Ініціалізація списку книг та доступності" style="whiteSpace=wrap;strokeWidth=2;" vertex="1" parent="1">
          <mxGeometry x="714" y="118" width="243" height="66" as="geometry" />
        </mxCell>
        <mxCell id="aaKhnQfu2FWIcfCH-mZ6-41" value="" style="edgeStyle=orthogonalEdgeStyle;rounded=0;orthogonalLoop=1;jettySize=auto;html=1;" edge="1" parent="1" source="aaKhnQfu2FWIcfCH-mZ6-3" target="aaKhnQfu2FWIcfCH-mZ6-4">
          <mxGeometry relative="1" as="geometry" />
        </mxCell>
        <mxCell id="aaKhnQfu2FWIcfCH-mZ6-3" value="Виведення меню" style="whiteSpace=wrap;strokeWidth=2;" vertex="1" parent="1">
          <mxGeometry x="743" y="234" width="185" height="48" as="geometry" />
        </mxCell>
        <mxCell id="aaKhnQfu2FWIcfCH-mZ6-4" value="Вибір користувача" style="rhombus;strokeWidth=2;whiteSpace=wrap;" vertex="1" parent="1">
          <mxGeometry x="743" y="333" width="185" height="185" as="geometry" />
        </mxCell>
        <mxCell id="aaKhnQfu2FWIcfCH-mZ6-5" value="Вивести список книг" style="whiteSpace=wrap;strokeWidth=2;" vertex="1" parent="1">
          <mxGeometry x="30" y="930" width="213" height="48" as="geometry" />
        </mxCell>
        <mxCell id="aaKhnQfu2FWIcfCH-mZ6-6" value="Повернення до меню" style="whiteSpace=wrap;strokeWidth=2;" vertex="1" parent="1">
          <mxGeometry x="860" y="1120" width="217" height="48" as="geometry" />
        </mxCell>
        <mxCell id="aaKhnQfu2FWIcfCH-mZ6-7" value="Запитати номер книги для позичення" style="whiteSpace=wrap;strokeWidth=2;" vertex="1" parent="1">
          <mxGeometry x="413" y="590" width="256" height="66" as="geometry" />
        </mxCell>
        <mxCell id="aaKhnQfu2FWIcfCH-mZ6-8" value="Чи доступна книга?" style="rhombus;strokeWidth=2;whiteSpace=wrap;" vertex="1" parent="1">
          <mxGeometry x="445" y="698" width="192" height="192" as="geometry" />
        </mxCell>
        <mxCell id="aaKhnQfu2FWIcfCH-mZ6-9" value="Позначити як позичену" style="whiteSpace=wrap;strokeWidth=2;" vertex="1" parent="1">
          <mxGeometry x="300" y="970" width="232" height="48" as="geometry" />
        </mxCell>
        <mxCell id="aaKhnQfu2FWIcfCH-mZ6-10" value="Вивести повідомлення: Книга недоступна" style="whiteSpace=wrap;strokeWidth=2;" vertex="1" parent="1">
          <mxGeometry x="557.5" y="952" width="233" height="66" as="geometry" />
        </mxCell>
        <mxCell id="aaKhnQfu2FWIcfCH-mZ6-11" value="Запитати номер книги для повернення" style="whiteSpace=wrap;strokeWidth=2;" vertex="1" parent="1">
          <mxGeometry x="1002" y="590" width="256" height="66" as="geometry" />
        </mxCell>
        <mxCell id="aaKhnQfu2FWIcfCH-mZ6-12" value="Чи вже повернута книга?" style="rhombus;strokeWidth=2;whiteSpace=wrap;" vertex="1" parent="1">
          <mxGeometry x="1013" y="690" width="234" height="234" as="geometry" />
        </mxCell>
        <mxCell id="aaKhnQfu2FWIcfCH-mZ6-13" value="Вивести повідомлення: Книга вже є" style="whiteSpace=wrap;strokeWidth=2;" vertex="1" parent="1">
          <mxGeometry x="869" y="970" width="233" height="66" as="geometry" />
        </mxCell>
        <mxCell id="aaKhnQfu2FWIcfCH-mZ6-14" value="Позначити як доступну" style="whiteSpace=wrap;strokeWidth=2;" vertex="1" parent="1">
          <mxGeometry x="1150" y="970" width="231" height="48" as="geometry" />
        </mxCell>
        <mxCell id="aaKhnQfu2FWIcfCH-mZ6-15" value="Вивести повідомлення: Вихід з програми" style="whiteSpace=wrap;strokeWidth=2;" vertex="1" parent="1">
          <mxGeometry x="719" y="590" width="233" height="66" as="geometry" />
        </mxCell>
        <mxCell id="aaKhnQfu2FWIcfCH-mZ6-17" value="Вивести повідомлення: Неправильний вибір" style="whiteSpace=wrap;strokeWidth=2;" vertex="1" parent="1">
          <mxGeometry x="1440" y="680" width="233" height="66" as="geometry" />
        </mxCell>
        <mxCell id="aaKhnQfu2FWIcfCH-mZ6-18" value="" style="curved=1;startArrow=none;endArrow=block;exitX=0.5;exitY=1.01;entryX=0.5;entryY=0.01;rounded=0;" edge="1" parent="1" target="aaKhnQfu2FWIcfCH-mZ6-2">
          <mxGeometry relative="1" as="geometry">
            <Array as="points" />
            <mxPoint x="835.5" y="68" as="sourcePoint" />
          </mxGeometry>
        </mxCell>
        <mxCell id="aaKhnQfu2FWIcfCH-mZ6-19" value="" style="curved=1;startArrow=none;endArrow=block;exitX=0.5;exitY=1.01;entryX=0.5;entryY=0.01;rounded=0;" edge="1" parent="1" source="aaKhnQfu2FWIcfCH-mZ6-2" target="aaKhnQfu2FWIcfCH-mZ6-3">
          <mxGeometry relative="1" as="geometry">
            <Array as="points" />
          </mxGeometry>
        </mxCell>
        <mxCell id="aaKhnQfu2FWIcfCH-mZ6-21" value="1: Показати всі книги" style="curved=1;startArrow=none;endArrow=block;exitX=0;exitY=0.59;entryX=0.5;entryY=-0.01;rounded=0;" edge="1" parent="1" source="aaKhnQfu2FWIcfCH-mZ6-4" target="aaKhnQfu2FWIcfCH-mZ6-5">
          <mxGeometry x="-0.5128" y="22" relative="1" as="geometry">
            <Array as="points">
              <mxPoint x="127" y="554" />
            </Array>
            <mxPoint as="offset" />
          </mxGeometry>
        </mxCell>
        <mxCell id="aaKhnQfu2FWIcfCH-mZ6-22" value="" style="curved=1;startArrow=none;endArrow=block;exitX=0.5;exitY=1;entryX=0;entryY=0.37;rounded=0;" edge="1" parent="1" source="aaKhnQfu2FWIcfCH-mZ6-5" target="aaKhnQfu2FWIcfCH-mZ6-6">
          <mxGeometry relative="1" as="geometry">
            <Array as="points">
              <mxPoint x="127" y="1126" />
            </Array>
          </mxGeometry>
        </mxCell>
        <mxCell id="aaKhnQfu2FWIcfCH-mZ6-23" value="2: Позичити книгу" style="curved=1;startArrow=none;endArrow=block;exitX=0;exitY=0.72;entryX=0.5;entryY=0;rounded=0;" edge="1" parent="1" source="aaKhnQfu2FWIcfCH-mZ6-4" target="aaKhnQfu2FWIcfCH-mZ6-7">
          <mxGeometry relative="1" as="geometry">
            <Array as="points">
              <mxPoint x="541" y="554" />
            </Array>
          </mxGeometry>
        </mxCell>
        <mxCell id="aaKhnQfu2FWIcfCH-mZ6-24" value="" style="curved=1;startArrow=none;endArrow=block;exitX=0.5;exitY=1;entryX=0.5;entryY=0;rounded=0;" edge="1" parent="1" source="aaKhnQfu2FWIcfCH-mZ6-7" target="aaKhnQfu2FWIcfCH-mZ6-8">
          <mxGeometry relative="1" as="geometry">
            <Array as="points" />
          </mxGeometry>
        </mxCell>
        <mxCell id="aaKhnQfu2FWIcfCH-mZ6-25" value="Так" style="curved=1;startArrow=none;endArrow=block;exitX=0.04;exitY=1;entryX=0.5;entryY=-0.01;rounded=0;" edge="1" parent="1" source="aaKhnQfu2FWIcfCH-mZ6-8" target="aaKhnQfu2FWIcfCH-mZ6-9">
          <mxGeometry relative="1" as="geometry">
            <Array as="points">
              <mxPoint x="400" y="999" />
            </Array>
          </mxGeometry>
        </mxCell>
        <mxCell id="aaKhnQfu2FWIcfCH-mZ6-26" value="Ні" style="curved=1;startArrow=none;endArrow=block;exitX=1;exitY=1;entryX=0.5;entryY=0;rounded=0;" edge="1" parent="1" source="aaKhnQfu2FWIcfCH-mZ6-8" target="aaKhnQfu2FWIcfCH-mZ6-10">
          <mxGeometry relative="1" as="geometry">
            <Array as="points">
              <mxPoint x="694" y="999" />
            </Array>
          </mxGeometry>
        </mxCell>
        <mxCell id="aaKhnQfu2FWIcfCH-mZ6-27" value="" style="curved=1;startArrow=none;endArrow=block;exitX=0.5;exitY=1;entryX=0;entryY=0.31;rounded=0;" edge="1" parent="1" source="aaKhnQfu2FWIcfCH-mZ6-9" target="aaKhnQfu2FWIcfCH-mZ6-6">
          <mxGeometry relative="1" as="geometry">
            <Array as="points">
              <mxPoint x="400" y="1126" />
            </Array>
          </mxGeometry>
        </mxCell>
        <mxCell id="aaKhnQfu2FWIcfCH-mZ6-28" value="" style="curved=1;startArrow=none;endArrow=block;exitX=0.5;exitY=1;entryX=0;entryY=0.11;rounded=0;" edge="1" parent="1" source="aaKhnQfu2FWIcfCH-mZ6-10" target="aaKhnQfu2FWIcfCH-mZ6-6">
          <mxGeometry relative="1" as="geometry">
            <Array as="points">
              <mxPoint x="694" y="1126" />
            </Array>
          </mxGeometry>
        </mxCell>
        <mxCell id="aaKhnQfu2FWIcfCH-mZ6-29" value="3: Повернути книгу" style="curved=1;startArrow=none;endArrow=block;exitX=1;exitY=0.72;entryX=0.5;entryY=0;rounded=0;" edge="1" parent="1" source="aaKhnQfu2FWIcfCH-mZ6-4" target="aaKhnQfu2FWIcfCH-mZ6-11">
          <mxGeometry relative="1" as="geometry">
            <Array as="points">
              <mxPoint x="1130" y="554" />
            </Array>
          </mxGeometry>
        </mxCell>
        <mxCell id="aaKhnQfu2FWIcfCH-mZ6-30" value="" style="curved=1;startArrow=none;endArrow=block;exitX=0.5;exitY=1;entryX=0.5;entryY=0;rounded=0;" edge="1" parent="1" source="aaKhnQfu2FWIcfCH-mZ6-11" target="aaKhnQfu2FWIcfCH-mZ6-12">
          <mxGeometry relative="1" as="geometry">
            <Array as="points" />
          </mxGeometry>
        </mxCell>
        <mxCell id="aaKhnQfu2FWIcfCH-mZ6-31" value="Так" style="curved=1;startArrow=none;endArrow=block;exitX=0;exitY=1;entryX=0.5;entryY=0;rounded=0;" edge="1" parent="1" source="aaKhnQfu2FWIcfCH-mZ6-12" target="aaKhnQfu2FWIcfCH-mZ6-13">
          <mxGeometry relative="1" as="geometry">
            <Array as="points">
              <mxPoint x="977" y="999" />
            </Array>
          </mxGeometry>
        </mxCell>
        <mxCell id="aaKhnQfu2FWIcfCH-mZ6-32" value="Ні" style="curved=1;startArrow=none;endArrow=block;exitX=0.96;exitY=1;entryX=0.5;entryY=-0.01;rounded=0;" edge="1" parent="1" source="aaKhnQfu2FWIcfCH-mZ6-12" target="aaKhnQfu2FWIcfCH-mZ6-14">
          <mxGeometry relative="1" as="geometry">
            <Array as="points">
              <mxPoint x="1271" y="999" />
            </Array>
          </mxGeometry>
        </mxCell>
        <mxCell id="aaKhnQfu2FWIcfCH-mZ6-33" value="" style="curved=1;startArrow=none;endArrow=block;exitX=0.5;exitY=1;entryX=0.5;entryY=0;rounded=0;" edge="1" parent="1" source="aaKhnQfu2FWIcfCH-mZ6-13" target="aaKhnQfu2FWIcfCH-mZ6-6">
          <mxGeometry relative="1" as="geometry">
            <Array as="points" />
          </mxGeometry>
        </mxCell>
        <mxCell id="aaKhnQfu2FWIcfCH-mZ6-34" value="" style="curved=1;startArrow=none;endArrow=block;exitX=0.5;exitY=1;entryX=1;entryY=0.12;rounded=0;" edge="1" parent="1" source="aaKhnQfu2FWIcfCH-mZ6-14" target="aaKhnQfu2FWIcfCH-mZ6-6">
          <mxGeometry relative="1" as="geometry">
            <Array as="points">
              <mxPoint x="1271" y="1126" />
            </Array>
          </mxGeometry>
        </mxCell>
        <mxCell id="aaKhnQfu2FWIcfCH-mZ6-35" value="4: Вийти" style="curved=1;startArrow=none;endArrow=block;exitX=0.5;exitY=1;entryX=0.5;entryY=0;rounded=0;" edge="1" parent="1" source="aaKhnQfu2FWIcfCH-mZ6-4" target="aaKhnQfu2FWIcfCH-mZ6-15">
          <mxGeometry relative="1" as="geometry">
            <Array as="points" />
          </mxGeometry>
        </mxCell>
        <mxCell id="aaKhnQfu2FWIcfCH-mZ6-36" value="" style="curved=1;startArrow=none;endArrow=block;exitX=0.5;exitY=1;entryX=0.5;entryY=0.01;rounded=0;" edge="1" parent="1" source="aaKhnQfu2FWIcfCH-mZ6-15">
          <mxGeometry relative="1" as="geometry">
            <Array as="points" />
            <mxPoint x="835" y="720" as="targetPoint" />
          </mxGeometry>
        </mxCell>
        <mxCell id="aaKhnQfu2FWIcfCH-mZ6-37" value="Інша опція" style="curved=1;startArrow=none;endArrow=block;exitX=1;exitY=0.59;entryX=0.5;entryY=0;rounded=0;" edge="1" parent="1" source="aaKhnQfu2FWIcfCH-mZ6-4" target="aaKhnQfu2FWIcfCH-mZ6-17">
          <mxGeometry x="-0.3634" y="-13" relative="1" as="geometry">
            <Array as="points">
              <mxPoint x="1553" y="554" />
            </Array>
            <mxPoint x="1" as="offset" />
          </mxGeometry>
        </mxCell>
        <mxCell id="aaKhnQfu2FWIcfCH-mZ6-38" value="" style="curved=1;startArrow=none;endArrow=block;exitX=0.5;exitY=1;entryX=1;entryY=0.31;rounded=0;" edge="1" parent="1" source="aaKhnQfu2FWIcfCH-mZ6-17" target="aaKhnQfu2FWIcfCH-mZ6-6">
          <mxGeometry relative="1" as="geometry">
            <Array as="points">
              <mxPoint x="1553" y="1126" />
            </Array>
          </mxGeometry>
        </mxCell>
        <mxCell id="aaKhnQfu2FWIcfCH-mZ6-39" value="" style="curved=1;startArrow=none;endArrow=block;exitX=1;exitY=0.35;entryX=1;entryY=0.7;rounded=0;" edge="1" parent="1" source="aaKhnQfu2FWIcfCH-mZ6-6" target="aaKhnQfu2FWIcfCH-mZ6-3">
          <mxGeometry relative="1" as="geometry">
            <Array as="points">
              <mxPoint x="1705" y="1126" />
              <mxPoint x="1705" y="308" />
            </Array>
          </mxGeometry>
        </mxCell>
        <mxCell id="aaKhnQfu2FWIcfCH-mZ6-42" value="end" style="ellipse;whiteSpace=wrap;html=1;" vertex="1" parent="1">
          <mxGeometry x="776" y="720" width="124" height="70" as="geometry" />
        </mxCell>
        <mxCell id="aaKhnQfu2FWIcfCH-mZ6-43" value="start" style="ellipse;whiteSpace=wrap;html=1;" vertex="1" parent="1">
          <mxGeometry x="790.5" y="20" width="90" height="52" as="geometry" />
        </mxCell>
      </root>
    </mxGraphModel>
  </diagram>
</mxfile>
